HIERARCHY
ROOT Hips
{
    OFFSET   0.000000   0.000000   0.000000
    CHANNELS 6 Xposition Yposition Zposition Zrotation Xrotation Yrotation
    JOINT Chest
    {
        OFFSET   0.000000   8.007240   0.000000
        CHANNELS 3 Zrotation Xrotation Yrotation
        JOINT Chest2
        {
            OFFSET   0.000000  22.077100   0.000000
            CHANNELS 3 Zrotation Xrotation Yrotation
            JOINT Neck
            {
                OFFSET   0.000000  23.254800   0.000000
                CHANNELS 3 Zrotation Xrotation Yrotation
                JOINT Head
                {
                    OFFSET   0.000000  14.370000   1.956600
                    CHANNELS 3 Zrotation Xrotation Yrotation
                    End Site
                    {
                        OFFSET   0.000000  19.566000   0.000000
                    }
                }
            }
            JOINT LeftCollar
            {
                OFFSET   3.911900  19.017000  -0.467064
                CHANNELS 3 Zrotation Xrotation Yrotation
                JOINT LeftShoulder
                {
                    OFFSET  10.383700   0.000000   0.000000
                    CHANNELS 3 Zrotation Xrotation Yrotation
                    JOINT LeftElbow
                    {
                        OFFSET  26.662100   0.001476   0.000517
                        CHANNELS 3 Zrotation Xrotation Yrotation
                        JOINT LeftWrist
                        {
                            OFFSET  28.869000  -0.000025  -0.000106
                            CHANNELS 3 Zrotation Xrotation Yrotation
                            JOINT LeftFinger0
                            {
                                OFFSET   2.044660  -2.323460   3.252850
                                CHANNELS 3 Zrotation Xrotation Yrotation
                                JOINT LeftFinger01
                                {
                                    OFFSET   3.088130   0.000000   0.000000
                                    CHANNELS 3 Zrotation Xrotation Yrotation
                                    JOINT LeftFinger02
                                    {
                                        OFFSET   2.639460   0.000000   0.000000
                                        CHANNELS 3 Zrotation Xrotation Yrotation
                                        End Site
                                        {
                                            OFFSET   2.582190   0.000000   0.000000
                                        }
                                    }
                                }
                            }
                            JOINT LeftFinger1
                            {
                                OFFSET   8.364480   0.000000   3.252850
                                CHANNELS 3 Zrotation Xrotation Yrotation
                                JOINT LeftFinger11
                                {
                                    OFFSET   4.646930   0.000000   0.000000
                                    CHANNELS 3 Zrotation Xrotation Yrotation
                                    JOINT LeftFinger12
                                    {
                                        OFFSET   2.323460   0.000000   0.000000
                                        CHANNELS 3 Zrotation Xrotation Yrotation
                                        End Site
                                        {
                                            OFFSET   2.273050   0.000000   0.000000
                                        }
                                    }
                                }
                            }
                            JOINT LeftFinger2
                            {
                                OFFSET   8.364490   0.000015   1.078090
                                CHANNELS 3 Zrotation Xrotation Yrotation
                                JOINT LeftFinger21
                                {
                                    OFFSET   5.111620   0.000000   0.000000
                                    CHANNELS 3 Zrotation Xrotation Yrotation
                                    JOINT LeftFinger22
                                    {
                                        OFFSET   2.788160   0.000016   0.000000
                                        CHANNELS 3 Zrotation Xrotation Yrotation
                                        End Site
                                        {
                                            OFFSET   2.727660   0.000000   0.000000
                                        }
                                    }
                                }
                            }
                            JOINT LeftFinger3
                            {
                                OFFSET   7.899780   0.000017  -1.078090
                                CHANNELS 3 Zrotation Xrotation Yrotation
                                JOINT LeftFinger31
                                {
                                    OFFSET   4.646930   0.000000   0.000000
                                    CHANNELS 3 Zrotation Xrotation Yrotation
                                    JOINT LeftFinger32
                                    {
                                        OFFSET   2.323470   0.000000   0.000000
                                        CHANNELS 3 Zrotation Xrotation Yrotation
                                        End Site
                                        {
                                            OFFSET   2.273050   0.000000   0.000000
                                        }
                                    }
                                }
                            }
                            JOINT LeftFinger4
                            {
                                OFFSET   7.435090   0.000000  -3.252850
                                CHANNELS 3 Zrotation Xrotation Yrotation
                                JOINT LeftFinger41
                                {
                                    OFFSET   3.717550   0.000000   0.000000
                                    CHANNELS 3 Zrotation Xrotation Yrotation
                                    JOINT LeftFinger42
                                    {
                                        OFFSET   1.858770   0.000000   0.000000
                                        CHANNELS 3 Zrotation Xrotation Yrotation
                                        End Site
                                        {
                                            OFFSET   1.818440   0.000000   0.000000
                                        }
                                    }
                                }
                            }
                        }
                    }
                }
            }
            JOINT RightCollar
            {
                OFFSET  -3.911900  19.017000  -0.467063
                CHANNELS 3 Zrotation Xrotation Yrotation
                JOINT RightShoulder
                {
                    OFFSET -10.383700   0.000019   0.000000
                    CHANNELS 3 Zrotation Xrotation Yrotation
                    JOINT RightElbow
                    {
                        OFFSET -26.662100   0.001175   0.000102
                        CHANNELS 3 Zrotation Xrotation Yrotation
                        JOINT RightWrist
                        {
                            OFFSET -28.869000   0.000016  -0.000079
                            CHANNELS 3 Zrotation Xrotation Yrotation
                            JOINT RightFinger0
                            {
                                OFFSET  -2.044660  -2.323490   3.252850
                                CHANNELS 3 Zrotation Xrotation Yrotation
                                JOINT RightFinger01
                                {
                                    OFFSET  -3.088140   0.000000   0.000000
                                    CHANNELS 3 Zrotation Xrotation Yrotation
                                    JOINT RightFinger02
                                    {
                                        OFFSET  -2.639460   0.000000   0.000000
                                        CHANNELS 3 Zrotation Xrotation Yrotation
                                        End Site
                                        {
                                            OFFSET  -2.582190   0.000000   0.000000
                                        }
                                    }
                                }
                            }
                            JOINT RightFinger1
                            {
                                OFFSET  -8.364480   0.000000   3.252850
                                CHANNELS 3 Zrotation Xrotation Yrotation
                                JOINT RightFinger11
                                {
                                    OFFSET  -4.646930   0.000000   0.000000
                                    CHANNELS 3 Zrotation Xrotation Yrotation
                                    JOINT RightFinger12
                                    {
                                        OFFSET  -2.323470   0.000000   0.000000
                                        CHANNELS 3 Zrotation Xrotation Yrotation
                                        End Site
                                        {
                                            OFFSET  -2.273050   0.000000   0.000000
                                        }
                                    }
                                }
                            }
                            JOINT RightFinger2
                            {
                                OFFSET  -8.364480   0.000000   1.078090
                                CHANNELS 3 Zrotation Xrotation Yrotation
                                JOINT RightFinger21
                                {
                                    OFFSET  -5.111620   0.000000   0.000000
                                    CHANNELS 3 Zrotation Xrotation Yrotation
                                    JOINT RightFinger22
                                    {
                                        OFFSET  -2.788160   0.000000   0.000000
                                        CHANNELS 3 Zrotation Xrotation Yrotation
                                        End Site
                                        {
                                            OFFSET  -2.727660   0.000000   0.000000
                                        }
                                    }
                                }
                            }
                            JOINT RightFinger3
                            {
                                OFFSET  -7.899780   0.000000  -1.078090
                                CHANNELS 3 Zrotation Xrotation Yrotation
                                JOINT RightFinger31
                                {
                                    OFFSET  -4.646930   0.000000   0.000000
                                    CHANNELS 3 Zrotation Xrotation Yrotation
                                    JOINT RightFinger32
                                    {
                                        OFFSET  -2.323470   0.000000   0.000000
                                        CHANNELS 3 Zrotation Xrotation Yrotation
                                        End Site
                                        {
                                            OFFSET  -2.273050   0.000000   0.000000
                                        }
                                    }
                                }
                            }
                            JOINT RightFinger4
                            {
                                OFFSET  -7.435090   0.000000  -3.252850
                                CHANNELS 3 Zrotation Xrotation Yrotation
                                JOINT RightFinger41
                                {
                                    OFFSET  -3.717550   0.000000   0.000000
                                    CHANNELS 3 Zrotation Xrotation Yrotation
                                    JOINT RightFinger42
                                    {
                                        OFFSET  -1.858770   0.000000   0.000000
                                        CHANNELS 3 Zrotation Xrotation Yrotation
                                        End Site
                                        {
                                            OFFSET  -1.818440   0.000000   0.000000
                                        }
                                    }
                                }
                            }
                        }
                    }
                }
            }
        }
    }
    JOINT LeftHip
    {
        OFFSET   9.783040   0.000000   0.000000
        CHANNELS 3 Zrotation Xrotation Yrotation
        JOINT LeftKnee
        {
            OFFSET   0.000032 -41.789100  -0.002222
            CHANNELS 3 Zrotation Xrotation Yrotation
            JOINT LeftAnkle
            {
                OFFSET   0.000087 -41.133200  -0.000135
                CHANNELS 3 Zrotation Xrotation Yrotation
                JOINT LeftToe
                {
                    OFFSET   0.000000  -6.358960  14.674500
                    CHANNELS 3 Zrotation Xrotation Yrotation
                    End Site
                    {
                        OFFSET   0.000000   0.000000   3.913200
                    }
                }
            }
        }
    }
    JOINT RightHip
    {
        OFFSET  -9.783040   0.000000   0.000000
        CHANNELS 3 Zrotation Xrotation Yrotation
        JOINT RightKnee
        {
            OFFSET   0.000047 -41.789100  -0.000896
            CHANNELS 3 Zrotation Xrotation Yrotation
            JOINT RightAnkle
            {
                OFFSET  -0.000117 -41.133300  -0.000248
                CHANNELS 3 Zrotation Xrotation Yrotation
                JOINT RightToe
                {
                    OFFSET   0.000000  -6.358970  14.674500
                    CHANNELS 3 Zrotation Xrotation Yrotation
                    End Site
                    {
                        OFFSET   0.000000   0.000000   3.913200
                    }
                }
            }
        }
    }
}
MOTION
Frames: 5
Frame Time:   0.016667
 -1.662200  89.552300  -0.173200  -1.130710  -6.464320  -0.442323   0.647204   3.139810  -1.013320   1.353060   6.267440  -2.066820   1.077290   0.704235  -0.019415   1.774430   1.425200   3.909150  -3.238870   4.315010   2.477390 -72.287500  12.667500  -5.373010  -1.632150  -5.064090  -9.575400   6.938430  -8.927050   6.294630  39.583000  26.328200 -66.050100 -17.634200  -0.001800  -0.000501  -3.818770  -0.002826  -0.002916 -28.750900   4.045670  -7.341360 -23.747400  -0.003028   0.003415 -16.617800  -0.012511  -0.001658 -27.210800   1.342000  -2.617180 -28.024000  -0.001639   0.003660 -18.664000  -0.012318  -0.005575 -26.829300  -0.320470   0.617696 -26.830900  -0.001902   0.003128 -17.870700  -0.002765  -0.002159 -29.316200  -0.736035   1.295280 -43.987000  -0.006930   0.002960 -29.294000  -0.006945   0.002043   4.217850   1.764710   4.975590  73.909100   2.067300   1.901520  -0.632199  -6.548350   6.618890 -14.764000  -9.485650   0.173095 -40.280300  31.786900  72.927900  22.209200   0.002686  -0.012063   6.099330   0.005027  -0.001487  32.170400   7.975730  12.434900  27.034700  -0.012559   0.000440  18.922500   0.002732   0.001956  28.093000   4.241550   7.865370  34.956800  -0.002173  -0.003907  23.281300  -0.000610   0.002896  28.072000   2.969720   5.533850  33.532500  -0.003752  -0.010423  22.332600  -0.004188  -0.001609  32.724400   0.732745   1.147360  49.097400  -0.006225  -0.014994  32.698900  -0.007275  -0.003580   2.458260   9.231130   1.613110   1.757390   0.162582   6.378590  -5.257590  -3.121350   0.737148   0.000000   0.000000  -0.000000   0.103077   6.260060  -4.181290   0.849552   2.841310  -6.382600  -2.721240  -3.010970  -2.793230   0.000000   0.000000   0.000000
 -1.662060  89.552300  -0.173232  -1.130740  -6.464270  -0.442631   0.647188   3.144990  -1.011880   1.353060   6.277810  -2.064010   1.077290   0.705914  -0.019439   1.774220   1.429030   3.907860  -3.238270   4.315090   2.471520 -72.287000  12.667900  -5.372760  -1.632990  -5.069370  -9.575440   6.937290  -8.932680   6.294640  39.580900  26.328900 -66.050900 -17.641600  -0.001793  -0.000496  -3.818760  -0.002824  -0.002909 -28.757600   4.045640  -7.341720 -23.747400  -0.003024   0.003415 -16.619900  -0.012511  -0.001656 -27.210900   1.341280  -2.610000 -28.034100  -0.001638   0.003662 -18.670800  -0.012317  -0.005572 -26.829200  -0.320470   0.624332 -26.830900  -0.001900   0.003131 -17.871200  -0.002763  -0.002157 -29.320600  -0.735981   1.304250 -43.993200  -0.006928   0.002963 -29.299100  -0.006945   0.002045   4.218260   1.759930   4.976880  73.902000   2.067310   1.898540  -0.631589  -6.547790   6.622870 -14.764100  -9.485690   0.172338 -40.284900  31.788200  72.930600  22.209900   0.002688  -0.012074   6.101680   0.005028  -0.001479  32.164700   7.975790  12.434900  27.029700  -0.012557   0.000437  18.922500   0.002728   0.001951  28.093000   4.241550   7.865240  34.946100  -0.002170  -0.003906  23.274100  -0.000610   0.002896  28.071800   2.969600   5.538210  33.520500  -0.003751  -0.010423  22.324900  -0.004185  -0.001610  32.724200   0.732747   1.147390  49.097100  -0.006225  -0.014997  32.698700  -0.007274  -0.003582   2.458390   9.225670   1.612990   1.757430   0.172712   6.378230  -5.257980  -3.126050   0.737069  -0.000000   0.000000   0.000000   0.102907   6.259450  -4.181250   0.849435   2.841560  -6.382600  -2.721240  -3.011190  -2.797660   0.000000   0.000000  -0.000000
 -1.661920  89.552300  -0.173311  -1.130750  -6.464180  -0.442940   0.647009   3.153660  -1.009410   1.352720   6.295200  -2.059170   1.077310   0.711182  -0.019464   1.773660   1.440300   3.905760  -3.237390   4.315180   2.462310 -72.283500  12.670600  -5.372550  -1.634810  -5.080690  -9.575500   6.933040  -8.938310   6.294600  39.579300  26.331900 -66.054100 -17.649000  -0.001782  -0.000491  -3.818730  -0.002821  -0.002895 -28.765000   4.045590  -7.342210 -23.747400  -0.003013   0.003419 -16.623200  -0.012510  -0.001650 -27.211100   1.339800  -2.602820 -28.044200  -0.001637   0.003669 -18.677500  -0.012316  -0.005564 -26.829200  -0.320469   0.633592 -26.830900  -0.001895   0.003138 -17.871600  -0.002760  -0.002153 -29.325100  -0.735868   1.313210 -44.000300  -0.006922   0.002971 -29.304200  -0.006945   0.002050   4.218990   1.750920   4.979680  73.889700   2.067320   1.892280  -0.629971  -6.547210   6.629140 -14.764700  -9.485790   0.168802 -40.290500  31.789700  72.933800  22.212200   0.002691  -0.012091   6.106090   0.005032  -0.001471  32.156400   7.975920  12.434900  27.022500  -0.012556   0.000433  18.922500   0.002721   0.001940  28.093000   4.241560   7.864960  34.930000  -0.002163  -0.003904  23.263400  -0.000612   0.002896  28.071500   2.969470   5.544650  33.503400  -0.003750  -0.010420  22.313300  -0.004183  -0.001616  32.724000   0.732749   1.147460  49.096800  -0.006223  -0.015005  32.698500  -0.007270  -0.003586   2.458630   9.216440   1.612850   1.757490   0.190489   6.377610  -5.259130  -3.134630   0.736502  -0.000000   0.000000   0.000000   0.102645   6.258840  -4.181150   0.849464   2.843130  -6.382600  -2.721390  -3.011400  -2.804890  -0.000000   0.000000   0.000000
 -1.662780  89.552400  -0.173444  -1.130510  -6.464100  -0.441063   0.645029   3.160710  -1.007250   1.348760   6.309370  -2.054800   1.081130   0.720846  -0.019431   1.778430   1.460160   3.904200  -3.236870   4.315080   2.456020 -72.274600  12.678100  -5.374370  -1.637610  -5.097570  -9.575600   6.923260  -8.931210   6.294400  39.583700  26.340300 -66.063500 -17.642300  -0.001780  -0.000521  -3.818690  -0.002817  -0.002879 -28.765500   4.045520  -7.342430 -23.745400  -0.002995   0.003429 -16.625200  -0.012509  -0.001641 -27.211000   1.337990  -2.604600 -28.040200  -0.001635   0.003679 -18.674800  -0.012312  -0.005551 -26.825300  -0.320787   0.636808 -26.827000  -0.001886   0.003149 -17.868100  -0.002754  -0.002146 -29.325100  -0.735718   1.306930 -44.001400  -0.006911   0.002984 -29.304200  -0.006945   0.002057   4.219750   1.740770   4.983660  73.878300   2.072740   1.883090  -0.626786  -6.550920   6.634170 -14.769700  -9.485910   0.160799 -40.295300  31.790000  72.934500  22.218300   0.002692  -0.012104   6.111190   0.005036  -0.001485  32.151500   7.976110  12.435200  27.018400  -0.012565   0.000428  18.922600   0.002713   0.001929  28.093100   4.241570   7.864580  34.919400  -0.002158  -0.003893  23.256900  -0.000615   0.002895  28.071300   2.969480   5.548000  33.495000  -0.003749  -0.010409  22.305300  -0.004189  -0.001631  32.724000   0.732752   1.147570  49.096900  -0.006221  -0.015019  32.698600  -0.007263  -0.003594   2.459760   9.206810   1.613150   1.757470   0.210942   6.376950  -5.261900  -3.145430   0.732439  -0.000000   0.000000  -0.000000   0.102437   6.259280  -4.181010   0.849936   2.846760  -6.382570  -2.721730  -3.011010  -2.810420  -0.000000   0.000000   0.000000
 -1.664720  89.552400  -0.173579  -1.129980  -6.464050  -0.436771   0.641795   3.167810  -1.005140   1.342320   6.323630  -2.050520   1.087030   0.732944  -0.019398   1.786620   1.484820   3.902630  -3.236450   4.314970   2.450650 -72.262300  12.686100  -5.378260  -1.640090  -5.112430  -9.575670   6.912990  -8.921550   6.294200  39.587500  26.346500 -66.070300 -17.635500  -0.001778  -0.000552  -3.818650  -0.002812  -0.002862 -28.765800   4.045480  -7.342500 -23.743400  -0.002971   0.003442 -16.626800  -0.012508  -0.001628 -27.210800   1.336010  -2.606390 -28.034600  -0.001633   0.003692 -18.671000  -0.012308  -0.005534 -26.818200  -0.321332   0.638682 -26.820000  -0.001875   0.003165 -17.862200  -0.002745  -0.002136 -29.325100  -0.735569   1.300650 -44.001600  -0.006898   0.003002 -29.304200  -0.006945   0.002067   4.220490   1.730910   4.987680  73.865600   2.081830   1.875260  -0.623064  -6.557280   6.637400 -14.777700  -9.486040   0.150872 -40.301400  31.789900  72.934600  22.222800   0.002692  -0.012112   6.115820   0.005042  -0.001511  32.149300   7.976330  12.435500  27.016600  -0.012581   0.000422  18.922600   0.002705   0.001914  28.093200   4.241580   7.864210  34.914100  -0.002149  -0.003878  23.252800  -0.000621   0.002893  28.071200   2.969640   5.550470  33.491700  -0.003746  -0.010393  22.301300  -0.004203  -0.001653  32.724300   0.732756   1.147700  49.097400  -0.006217  -0.015039  32.698900  -0.007254  -0.003605   2.461720   9.200950   1.613460   1.757450   0.223749   6.376540  -5.264100  -3.152370   0.725589  -0.000000   0.000000   0.000000   0.102316   6.259720  -4.180870   0.850562   2.851770  -6.382550  -2.722420  -3.010620  -2.815590  -0.000000   0.000000   0.000000
